<svg width="1440" height="2635" viewBox="0 0 1440 2635" fill="none" xmlns="http://www.w3.org/2000/svg">
<g clip-path="url(#clip0_223_194)">
<path d="M634.06 1530.46L650.652 419.967C650.652 419.967 663.926 390.09 634.06 383.336C604.193 376.583 693.908 44.2703 833.514 0.999925L833.514 143.975C833.514 143.975 743.8 203.844 833.514 300.23L780.303 373.377L750.437 393.295L763.711 1440.6L790.259 1473.8L796.896 1636.69C796.896 1636.69 853.425 1699.88 913.272 1636.69C913.272 1636.69 969.801 1457.2 973.12 1423.89C976.438 1390.58 1039.6 1576.82 1046.24 1646.65C1052.88 1716.48 876.769 1812.86 973.12 1972.44C1069.47 2132.01 1126 2241.79 1126 2241.79L1012.94 2635L800.214 2245.34C800.214 2245.34 604.079 2288.61 540.913 2547.89L500.976 2574.44C500.976 2574.44 444.562 2268.58 295 2165.55C295 2165.55 484.498 1876.28 527.639 1796.49C570.779 1716.71 417.899 1590.33 417.899 1590.33L491.021 1247.83L567.461 1557.02L633.945 1530.46L634.06 1530.46Z" fill="#1D1D1B"/>
</g>
<defs>
<clipPath id="clip0_223_194">
<rect width="1440" height="2635" fill="white"/>
</clipPath>
</defs>
</svg>
