<svg width="1440" height="839" viewBox="0 0 1440 839" fill="none" xmlns="http://www.w3.org/2000/svg">
<g clip-path="url(#clip0_223_195)">
<rect width="1440" height="839" fill="#E4E2E2"/>
<path d="M920.002 379.006L134.076 602.235C134.076 602.235 115.374 617.359 104.886 597.415C94.3985 577.471 -124.646 704.514 -128.803 811.988L-27.2083 784.766C-27.2083 784.766 -1.75455 709.596 83.8218 755.016L125.664 703.265L134.129 678.243L880.843 488.274L909.488 500.824L1026.5 474.528C1026.5 474.528 1082.17 502.679 1048.67 557.251C1048.67 557.251 931.891 631.608 908.853 640.31C885.814 649.011 1030.19 658.45 1081.07 649.873C1131.95 641.296 1166.9 497.761 1298.64 535.867C1430.38 573.974 1519.15 593.254 1519.15 593.254L1777.02 438.023L1459.62 361.002C1459.62 361.002 1453.01 213.345 1625.22 119.079L1636.48 85.6344C1636.48 85.6344 1408.39 103.77 1306.7 17.0735C1306.7 17.0735 1137.25 206.85 1088.77 252.707C1040.29 298.564 921.372 213.954 921.372 213.954L691.927 331.142L926.188 326.609L919.98 378.924L920.002 379.006Z" fill="#1D1D1B"/>
</g>
<defs>
<clipPath id="clip0_223_195">
<rect width="1440" height="839" fill="white" transform="matrix(-1 0 0 1 1440 0)"/>
</clipPath>
</defs>
</svg>

