<svg width="370" height="100" viewBox="0 0 370 100" fill="none" xmlns="http://www.w3.org/2000/svg">
<path d="M155.156 40.8014L311.147 42.7981C311.147 42.7981 315.344 44.3955 316.293 40.8014C317.242 37.2074 363.922 48.0033 370 64.8031H349.916C349.916 64.8031 341.506 54.0072 327.967 64.8031L317.692 58.3999L314.894 54.8058L167.778 56.4032L163.115 59.5979L140.233 60.3966C140.233 60.3966 131.357 67.1991 140.233 74.401C140.233 74.401 165.447 81.2035 170.126 81.6029C174.805 82.0022 148.643 89.6034 138.834 90.4021C129.026 91.2008 115.486 70.0083 93.0708 81.6029C70.6554 93.1975 55.2347 100 55.2347 100L0 86.3949L54.7362 60.7959C54.7362 60.7959 48.658 37.1936 12.2369 29.5924L8.5063 24.7866C8.5063 24.7866 51.472 17.9978 65.9439 0C65.9439 0 106.578 22.8036 117.786 27.995C128.993 33.1865 146.746 14.7893 146.746 14.7893L194.857 23.5885L151.425 32.7871L155.156 40.7877V40.8014Z" fill="#1D1D1B"/>
</svg>
