<svg width="393" height="225" viewBox="0 0 393 225" fill="none" xmlns="http://www.w3.org/2000/svg">
<g clip-path="url(#clip0_295_4)">
<rect x="332" y="-18" width="61" height="193" fill="#857D7D"/>
<rect y="-5" width="387" height="96" fill="#857D7D"/>
<rect width="251.011" height="66.1235" transform="matrix(0.964557 0.263873 -0.272596 0.962129 142.475 39.3389)" fill="#857D7D"/>
<path d="M141.916 101.64L356.408 161.505C356.408 161.505 361.512 165.561 364.375 160.213C367.237 154.864 427.018 188.934 428.152 217.756L400.425 210.456C400.425 210.456 393.479 190.297 370.124 202.477L358.704 188.599L356.394 181.889L152.603 130.943L144.785 134.309L112.851 127.257C112.851 127.257 97.6584 134.807 106.801 149.441C106.801 149.441 138.671 169.382 144.959 171.716C151.246 174.049 111.845 176.581 97.9582 174.28C84.0716 171.98 74.5343 133.488 38.5801 143.707C2.62592 153.926 -21.6016 159.097 -21.6016 159.097L-91.9791 117.467L-5.35506 96.812C-5.35506 96.812 -3.55104 57.2139 -50.5489 31.934L-53.6232 22.965C-53.6232 22.965 8.62571 27.8286 36.3794 4.57855C36.3794 4.57855 82.6266 55.4722 95.8569 67.7699C109.087 80.0675 141.542 57.3773 141.542 57.3773L204.161 88.8044L140.228 87.5887L141.922 101.618L141.916 101.64Z" fill="#1D1D1B"/>
</g>
<defs>
<clipPath id="clip0_295_4">
<rect width="393" height="225" fill="white"/>
</clipPath>
</defs>
</svg>
