<svg width="1440" height="839" viewBox="0 0 1440 839" fill="none" xmlns="http://www.w3.org/2000/svg">
<g clip-path="url(#clip0_259_4)">
<rect x="1347" y="390" width="93" height="261" fill="#857D7D"/>
<rect y="-5" width="1440" height="397" fill="#857D7D"/>
<rect x="522.046" y="146.688" width="920.878" height="246.251" transform="rotate(15.5575 522.046 146.688)" fill="#857D7D"/>
<path d="M519.998 379.005L1305.92 602.235C1305.92 602.235 1324.63 617.359 1335.11 597.415C1345.6 577.471 1564.65 704.513 1568.8 811.988L1467.21 784.765C1467.21 784.765 1441.75 709.595 1356.18 755.015L1314.34 703.264L1305.87 678.242L559.157 488.274L530.512 500.824L413.5 474.527C413.5 474.527 357.833 502.679 391.334 557.251C391.334 557.251 508.109 631.608 531.147 640.309C554.186 649.01 409.813 658.45 358.931 649.872C308.049 641.295 273.103 497.76 141.363 535.867C9.62209 573.973 -79.1505 593.254 -79.1505 593.254L-337.022 438.023L-19.6212 361.001C-19.6212 361.001 -13.011 213.344 -185.217 119.078L-196.481 85.6339C-196.481 85.6339 31.6061 103.77 133.299 17.073C133.299 17.073 302.754 206.85 351.232 252.706C399.71 298.563 518.628 213.954 518.628 213.954L748.073 331.142L513.812 326.608L520.02 378.924L519.998 379.005Z" fill="#1D1D1B"/>
</g>
<defs>
<clipPath id="clip0_259_4">
<rect width="1440" height="839" fill="white"/>
</clipPath>
</defs>
</svg>

