<svg width="40" height="40" viewBox="0 0 40 40" fill="none" xmlns="http://www.w3.org/2000/svg">
<path fill-rule="evenodd" clip-rule="evenodd" d="M20.0003 0H8.1377V0.0883789L5.51914 14.0632C4.97582 13.0584 4.05916 12.3984 3.01989 12.3984C1.35205 12.3984 0 14.0982 0 16.1949C0 18.2916 1.35205 19.9913 3.01989 19.9913C4.31957 19.9913 5.42749 18.9591 5.85329 17.5113L5.87782 17.5194L8.29613 4.61328H18.2135L16.4411 14.0721C15.8978 13.0673 14.9811 12.4072 13.9418 12.4072C12.2739 12.4072 10.9219 14.1069 10.9219 16.2036C10.9219 18.3003 12.2739 20.0001 13.9418 20.0001C15.2415 20.0001 16.3495 18.9678 16.7752 17.5199L16.7998 17.528L19.9941 0.480559H20.0003V0Z" fill="black"/>
</svg>
